<svg width="422" height="71" viewBox="0 0 422 71" fill="none" xmlns="http://www.w3.org/2000/svg">
<path d="M85.225 68.75C77.275 68.75 71.275 66.6 67.225 62.3C63.225 58 61.225 52.175 61.225 44.825C61.225 39.525 62.1 34.95 63.85 31.1C65.6 27.2 68.25 24.2 71.8 22.1C75.4 20 79.95 18.95 85.45 18.95C88.3 18.95 90.875 19.15 93.175 19.55C95.525 19.9 97.725 20.425 99.775 21.125V28.175C95.675 26.675 91.125 25.925 86.125 25.925C79.975 25.925 75.65 27.55 73.15 30.8C70.7 34.05 69.475 38.725 69.475 44.825C69.475 50.375 70.775 54.6 73.375 57.5C75.975 60.4 80 61.85 85.45 61.85C89.75 61.85 93.225 61.35 95.875 60.35V46.85H83.8V41.525H102.85V64.775C101.3 65.775 99.075 66.7 96.175 67.55C93.325 68.35 89.675 68.75 85.225 68.75ZM128.772 68.75C122.572 68.75 117.772 67.225 114.372 64.175C110.972 61.125 109.272 56.45 109.272 50.15C109.272 44.45 110.722 39.95 113.622 36.65C116.522 33.35 120.922 31.7 126.822 31.7C132.222 31.7 136.272 33.125 138.972 35.975C141.722 38.775 143.097 42.4 143.097 46.85V53.45H117.072C117.472 56.9 118.722 59.275 120.822 60.575C122.922 61.875 126.122 62.525 130.422 62.525C132.222 62.525 134.072 62.35 135.972 62C137.872 61.65 139.522 61.2 140.922 60.65V66.65C139.322 67.35 137.472 67.875 135.372 68.225C133.322 68.575 131.122 68.75 128.772 68.75ZM117.072 48.125H135.897V45.65C135.897 43.2 135.222 41.3 133.872 39.95C132.522 38.55 130.247 37.85 127.047 37.85C123.247 37.85 120.622 38.675 119.172 40.325C117.772 41.975 117.072 44.575 117.072 48.125ZM164.63 68.75C160.83 68.75 157.98 67.75 156.08 65.75C154.23 63.7 153.305 60.925 153.305 57.425V38.825H148.055V32.45H153.305V24.275L161.405 21.8V32.45H170.855L170.33 38.825H161.405V56.975C161.405 59.025 161.88 60.475 162.83 61.325C163.78 62.125 165.33 62.525 167.48 62.525C168.83 62.525 170.255 62.275 171.755 61.775V67.55C169.805 68.35 167.43 68.75 164.63 68.75ZM185.508 68.75C181.408 68.75 177.908 68.175 175.008 67.025V60.125C176.208 60.625 177.608 61.05 179.208 61.4C180.858 61.7 182.483 61.85 184.083 61.85C187.433 61.85 189.758 61.175 191.058 59.825C192.408 58.425 193.083 56.2 193.083 53.15V19.7H201.258V54.5C201.258 59.1 199.933 62.625 197.283 65.075C194.683 67.525 190.758 68.75 185.508 68.75ZM227.333 68.75C220.933 68.75 216.233 67.15 213.233 63.95C210.283 60.75 208.808 56.175 208.808 50.225C208.808 44.275 210.308 39.7 213.308 36.5C216.308 33.3 220.983 31.7 227.333 31.7C233.733 31.7 238.433 33.3 241.433 36.5C244.433 39.7 245.933 44.275 245.933 50.225C245.933 56.175 244.433 60.75 241.433 63.95C238.483 67.15 233.783 68.75 227.333 68.75ZM227.333 61.85C231.083 61.85 233.733 60.95 235.283 59.15C236.883 57.3 237.683 54.325 237.683 50.225C237.683 46.125 236.883 43.175 235.283 41.375C233.733 39.575 231.083 38.675 227.333 38.675C223.633 38.675 220.983 39.575 219.383 41.375C217.833 43.175 217.058 46.125 217.058 50.225C217.058 54.325 217.833 57.3 219.383 59.15C220.983 60.95 223.633 61.85 227.333 61.85ZM273.387 68.75C270.787 68.75 268.537 68.4 266.637 67.7C264.737 67 262.987 65.925 261.387 64.475L260.937 68H253.887V17.45H262.062V34.775C265.162 32.725 268.887 31.7 273.237 31.7C278.287 31.7 282.262 33.15 285.162 36.05C288.112 38.9 289.587 43.525 289.587 49.925C289.587 56.375 288.137 61.125 285.237 64.175C282.337 67.225 278.387 68.75 273.387 68.75ZM271.212 62.6C274.912 62.6 277.512 61.55 279.012 59.45C280.562 57.35 281.337 54.175 281.337 49.925C281.337 45.525 280.512 42.425 278.862 40.625C277.212 38.825 274.612 37.925 271.062 37.925C267.362 37.925 264.362 38.95 262.062 41V58.85C264.412 61.35 267.462 62.6 271.212 62.6ZM319.091 68.75C311.141 68.75 305.116 66.575 301.016 62.225C296.966 57.875 294.941 52 294.941 44.6C294.941 39.3 295.791 34.75 297.491 30.95C299.241 27.1 301.891 24.15 305.441 22.1C308.991 20 313.516 18.95 319.016 18.95C321.816 18.95 324.366 19.175 326.666 19.625C329.016 20.025 331.191 20.575 333.191 21.275V28.4C331.191 27.6 329.041 27 326.741 26.6C324.491 26.15 322.116 25.925 319.616 25.925C313.616 25.925 309.366 27.525 306.866 30.725C304.416 33.925 303.191 38.55 303.191 44.6C303.191 50.25 304.541 54.55 307.241 57.5C309.941 60.4 314.116 61.85 319.766 61.85C322.066 61.85 324.366 61.675 326.666 61.325C329.016 60.925 331.216 60.325 333.266 59.525V66.725C331.266 67.375 329.091 67.875 326.741 68.225C324.441 68.575 321.891 68.75 319.091 68.75ZM352.292 68.75C350.042 68.75 347.942 68.35 345.992 67.55C344.092 66.75 342.567 65.55 341.417 63.95C340.267 62.3 339.692 60.275 339.692 57.875C339.692 54.475 340.842 51.75 343.142 49.7C345.492 47.6 349.092 46.55 353.942 46.55H365.342V44.975C365.342 43.275 365.067 41.925 364.517 40.925C364.017 39.925 363.067 39.2 361.667 38.75C360.317 38.3 358.317 38.075 355.667 38.075C351.467 38.075 347.542 38.7 343.892 39.95V33.875C345.492 33.225 347.442 32.7 349.742 32.3C352.042 31.9 354.517 31.7 357.167 31.7C362.367 31.7 366.317 32.75 369.017 34.85C371.767 36.95 373.142 40.375 373.142 45.125V68H366.167L365.642 64.4C364.192 65.8 362.392 66.875 360.242 67.625C358.142 68.375 355.492 68.75 352.292 68.75ZM354.467 62.9C356.917 62.9 359.042 62.5 360.842 61.7C362.692 60.85 364.192 59.725 365.342 58.325V52.1H354.092C351.692 52.1 349.942 52.575 348.842 53.525C347.792 54.425 347.267 55.825 347.267 57.725C347.267 59.575 347.892 60.9 349.142 61.7C350.392 62.5 352.167 62.9 354.467 62.9ZM391.057 68.75C388.157 68.75 385.957 68.05 384.457 66.65C382.957 65.2 382.207 62.825 382.207 59.525V17.45H390.382V58.775C390.382 60.175 390.632 61.125 391.132 61.625C391.632 62.125 392.382 62.375 393.382 62.375C394.582 62.375 395.732 62.225 396.832 61.925V67.85C395.882 68.2 394.957 68.425 394.057 68.525C393.207 68.675 392.207 68.75 391.057 68.75ZM410.174 68.75C407.274 68.75 405.074 68.05 403.574 66.65C402.074 65.2 401.324 62.825 401.324 59.525V17.45H409.499V58.775C409.499 60.175 409.749 61.125 410.249 61.625C410.749 62.125 411.499 62.375 412.499 62.375C413.699 62.375 414.849 62.225 415.949 61.925V67.85C414.999 68.2 414.074 68.425 413.174 68.525C412.324 68.675 411.324 68.75 410.174 68.75Z" fill="#0151DC"/>
<path d="M43.692 58.0116L42.8771 64.1617C42.8039 64.733 42.6076 65.2832 42.3008 65.7771C41.994 66.271 41.5834 66.6978 41.0955 67.03C40.6075 67.3623 40.0529 67.5928 39.4671 67.7066C38.8813 67.8205 38.2773 67.8153 37.6937 67.6913C31.2348 66.2005 25.229 63.2714 20.1588 59.1392C15.4331 55.3594 11.6293 50.6238 9.01773 45.2688C6.12919 39.4784 4.69742 33.1142 4.8384 26.6916C4.86033 26.1182 5.00599 25.5554 5.26611 25.0392C5.52622 24.523 5.8951 24.0645 6.34925 23.6931C6.80339 23.3217 7.33286 23.0455 7.90394 22.8819C8.47503 22.7184 9.07521 22.6712 9.66627 22.7434L16.0517 23.5285C17.086 23.6457 18.0407 24.1211 18.738 24.8661C19.4353 25.6112 19.8275 26.575 19.8415 27.5779C19.8502 29.5792 20.094 31.5732 20.5681 33.5217C20.7573 34.2907 20.7136 35.0957 20.4422 35.8415C20.1709 36.5873 19.6833 37.2425 19.0371 37.7295L15.989 40.0007C18.3389 45.5056 22.188 50.2975 27.1301 53.8711L30.1782 51.5999C30.83 51.1199 31.6109 50.8298 32.4286 50.7642C33.2462 50.6986 34.0663 50.8601 34.7916 51.2296C36.6307 52.161 38.5734 52.8891 40.5825 53.4C41.5978 53.6676 42.4756 54.2853 43.049 55.1356C43.6223 55.9859 43.8512 57.0094 43.692 58.0116Z" stroke="#0151DC" stroke-width="6.35938" stroke-linecap="round" stroke-linejoin="round"/>
</svg>
